<mxfile host="65bd71144e">
    <diagram id="HIP3nbAZw_EuaXWnEj3U" name="Page-1">
        <mxGraphModel dx="1086" dy="658" grid="1" gridSize="10" guides="1" tooltips="1" connect="1" arrows="1" fold="1" page="1" pageScale="1" pageWidth="850" pageHeight="1100" math="0" shadow="0">
            <root>
                <mxCell id="0"/>
                <mxCell id="1" parent="0"/>
                <mxCell id="7" value="http://ics2o.mths.ca" style="swimlane;whiteSpace=wrap;html=1;" parent="1" vertex="1">
                    <mxGeometry x="50" y="40" width="760" height="480" as="geometry"/>
                </mxCell>
                <mxCell id="8" value="&lt;div style=&quot;color: rgb(230, 237, 243); background-color: rgb(13, 17, 23); font-family: Consolas, &amp;quot;Courier New&amp;quot;, monospace; font-size: 14px; line-height: 19px;&quot;&gt;&lt;span style=&quot;color: #a5d6ff;&quot;&gt;Museum Discount Week Schedule Info&lt;/span&gt;&lt;/div&gt;" style="rounded=0;whiteSpace=wrap;html=1;" vertex="1" parent="7">
                    <mxGeometry y="20" width="760" height="60" as="geometry"/>
                </mxCell>
                <mxCell id="9" value="Enter day of the week here" style="text;html=1;strokeColor=none;fillColor=none;align=center;verticalAlign=middle;whiteSpace=wrap;rounded=0;" vertex="1" parent="7">
                    <mxGeometry x="20" y="120" width="180" height="30" as="geometry"/>
                </mxCell>
                <mxCell id="10" value="Enter your age here" style="text;html=1;strokeColor=none;fillColor=none;align=center;verticalAlign=middle;whiteSpace=wrap;rounded=0;" vertex="1" parent="7">
                    <mxGeometry x="20" y="150" width="180" height="30" as="geometry"/>
                </mxCell>
                <mxCell id="11" value="Some pictures of all 7 days of the week" style="whiteSpace=wrap;html=1;aspect=fixed;" vertex="1" parent="7">
                    <mxGeometry x="560" y="130" width="140" height="140" as="geometry"/>
                </mxCell>
                <mxCell id="12" value="*You need to pay full admission" style="text;html=1;strokeColor=none;fillColor=none;align=center;verticalAlign=middle;whiteSpace=wrap;rounded=0;" vertex="1" parent="7">
                    <mxGeometry x="20" y="230" width="200" height="30" as="geometry"/>
                </mxCell>
                <mxCell id="13" value="*You have a discount" style="text;html=1;strokeColor=none;fillColor=none;align=center;verticalAlign=middle;whiteSpace=wrap;rounded=0;" vertex="1" parent="7">
                    <mxGeometry x="10" y="260" width="200" height="30" as="geometry"/>
                </mxCell>
                <mxCell id="14" value="Give me the info" style="rounded=1;whiteSpace=wrap;html=1;" vertex="1" parent="7">
                    <mxGeometry x="40" y="190" width="120" height="20" as="geometry"/>
                </mxCell>
            </root>
        </mxGraphModel>
    </diagram>
</mxfile>